<svg width="65" height="65" viewBox="0 0 65 65" fill="none" xmlns="http://www.w3.org/2000/svg">
<mask id="mask0_155_388" style="mask-type:luminance" maskUnits="userSpaceOnUse" x="4" y="0" width="57" height="65">
<path d="M60.9375 0H4.0625V65H60.9375V0Z" fill="white"/>
</mask>
<g mask="url(#mask0_155_388)">
<path d="M16.3766 50.9624L13.6887 55.2829H13.0638V50.9624H10.2508V55.2829H9.61001L7.03154 50.9624H4.0625L7.42228 56.2872L4.0625 61.6321V61.8809H6.87524L9.62561 57.2639H10.2508V61.8809H13.0638V57.2639H13.6887L16.314 61.8809H19.3768L15.8611 56.0688L19.2205 50.9624H16.3766Z" fill="white"/>
<path d="M23.5961 60.3986C24.1065 60.3986 24.5364 60.253 24.8854 59.9618C25.2342 59.6713 25.409 59.2704 25.409 58.7608V58.4176H23.518C23.1637 58.4176 22.9006 58.5117 22.7289 58.6986C22.557 58.8858 22.4711 59.104 22.4711 59.3538C22.4711 59.6554 22.557 59.9053 22.7289 60.1024C22.9006 60.3 23.1898 60.3986 23.5961 60.3986ZM22.8149 62.0832C22.3666 62.0832 21.9682 62.0156 21.6194 61.8806C21.2701 61.7457 20.976 61.5606 20.7363 61.3266C20.4967 61.0926 20.3146 60.8176 20.1896 60.5003C20.0645 60.1832 20.002 59.837 20.002 59.463C20.002 58.6417 20.2545 58.0122 20.7598 57.5757C21.2651 57.1389 22.028 56.9205 23.0491 56.9205H25.409V56.5773C25.409 56.0785 25.289 55.7327 25.0495 55.5401C24.8096 55.3479 24.4816 55.2515 24.065 55.2515C23.6688 55.2515 23.3773 55.3141 23.1898 55.4389C23.0024 55.5635 22.898 55.761 22.8771 56.0315H20.4708C20.4915 55.6573 20.5852 55.3115 20.752 54.9943C20.9187 54.6773 21.1557 54.4017 21.4631 54.1677C21.7703 53.9337 22.148 53.7494 22.5961 53.6139C23.044 53.4789 23.5597 53.4111 24.1432 53.4111C24.6848 53.4111 25.1824 53.4712 25.6357 53.5905C26.0886 53.7104 26.4768 53.9025 26.7996 54.1677C27.1226 54.4327 27.3725 54.7759 27.5498 55.1969C27.7267 55.6181 27.8155 56.1305 27.8155 56.7335V59.7748C27.8155 60.2116 27.8257 60.5936 27.8468 60.9212C27.8674 61.2488 27.8986 61.5686 27.9406 61.8806H25.6588C25.6379 61.7036 25.6197 61.548 25.6041 61.4126C25.5885 61.2777 25.5809 61.1112 25.5809 60.9136C25.3308 61.2462 24.9844 61.5242 24.5416 61.7478C24.0987 61.9716 23.5232 62.0832 22.8149 62.0832Z" fill="white"/>
<path d="M33.5192 60.1025C33.9983 60.1025 34.3966 59.9103 34.7146 59.5253C35.0325 59.1407 35.1912 58.5739 35.1912 57.8253V57.5135C35.1912 56.7957 35.0374 56.2629 34.7302 55.9147C34.4229 55.5664 34.0194 55.3921 33.5192 55.3921C33.0084 55.3921 32.5788 55.5508 32.2299 55.8677C31.8809 56.1852 31.7064 56.6553 31.7064 57.2795V58.0593C31.7064 58.7145 31.8809 59.2189 32.2299 59.5723C32.5788 59.9257 33.0084 60.1025 33.5192 60.1025ZM31.7064 65H29.2998V53.6139H31.519V54.7369C31.623 54.5708 31.7556 54.407 31.9174 54.2457C32.0789 54.0845 32.269 53.9413 32.4878 53.8165C32.7065 53.6917 32.9513 53.5931 33.2222 53.5203C33.4932 53.4476 33.7849 53.4111 34.0973 53.4111C35.264 53.4111 36.1498 53.7543 36.7542 54.4407C37.358 55.1267 37.6604 56.1514 37.6604 57.5135V57.8253C37.6604 58.5325 37.5771 59.1511 37.4103 59.6815C37.2436 60.2117 37.0039 60.6539 36.6916 61.0073C36.379 61.3606 36.0039 61.6285 35.5665 61.8105C35.1288 61.9924 34.6389 62.0835 34.0973 62.0835C33.6286 62.0835 33.1831 61.9767 32.7611 61.7635C32.3394 61.5507 31.9876 61.2413 31.7064 60.8355V65Z" fill="white"/>
<path d="M44.0671 62.0833C43.3169 62.0833 42.6242 61.9793 41.9888 61.7716C41.3532 61.5638 40.8009 61.2331 40.3322 60.7807C39.8633 60.3283 39.4961 59.7493 39.2306 59.042C38.9649 58.3348 38.832 57.4877 38.832 56.4997V56.1877C38.832 55.2414 38.9672 54.4276 39.2384 53.7463C39.5091 53.0655 39.879 52.5043 40.3479 52.0621C40.8166 51.6204 41.3636 51.2928 41.9888 51.0795C42.6138 50.8665 43.2805 50.7595 43.989 50.7595C44.6141 50.7595 45.1972 50.8323 45.739 50.9779C46.2807 51.1239 46.76 51.3499 47.1768 51.6567C47.5933 51.9636 47.94 52.3558 48.2159 52.8341C48.492 53.3127 48.6716 53.8842 48.7552 54.5499H45.8485C45.7756 54.2589 45.6713 54.0197 45.5361 53.8323C45.4006 53.6453 45.2493 53.4971 45.0828 53.3879C44.9161 53.2787 44.7392 53.2035 44.5515 53.1615C44.3639 53.1201 44.1765 53.0993 43.989 53.0993C43.6555 53.0993 43.3505 53.1513 43.0748 53.2551C42.7985 53.359 42.5615 53.5309 42.3637 53.7701C42.1657 54.009 42.012 54.3265 41.9026 54.7213C41.7932 55.1166 41.7385 55.6054 41.7385 56.1877V56.4997C41.7385 57.0818 41.7958 57.5782 41.9104 57.9892C42.025 58.4 42.184 58.7353 42.3871 58.9949C42.5903 59.2552 42.835 59.4448 43.1217 59.5642C43.408 59.684 43.7233 59.7436 44.0671 59.7436C44.3484 59.7436 44.6269 59.7072 44.9033 59.6344C45.179 59.5621 45.4238 59.4473 45.6375 59.2912C45.8511 59.1356 46.0253 58.9403 46.161 58.7063C46.2965 58.4723 46.3692 58.1893 46.3798 57.8561H44.3795V56.0785H48.9896V56.8114C48.9896 57.7469 48.867 58.5482 48.6223 59.2133C48.3774 59.879 48.0362 60.425 47.5988 60.8512C47.1611 61.2776 46.6428 61.5896 46.0439 61.7872C45.4446 61.9844 44.786 62.0833 44.0671 62.0833Z" fill="white"/>
<path d="M55.6315 59.7436C55.9441 59.7436 56.2461 59.6944 56.538 59.5954C56.8296 59.4968 57.0849 59.3251 57.3037 59.0808C57.5226 58.8367 57.6994 58.5062 57.8349 58.0902C57.9702 57.6747 58.0383 57.1445 58.0383 56.4994V56.1877C58.0383 55.5847 57.9702 55.0827 57.8349 54.6825C57.6994 54.2821 57.5226 53.9651 57.3037 53.7311C57.0849 53.4971 56.8296 53.3333 56.538 53.2397C56.2461 53.1459 55.9441 53.0993 55.6315 53.0993C55.3192 53.0993 55.0168 53.1459 54.7253 53.2397C54.4333 53.3333 54.1785 53.4971 53.9597 53.7311C53.7409 53.9651 53.5636 54.2821 53.4284 54.6825C53.2928 55.0827 53.2251 55.5847 53.2251 56.1877V56.4994C53.2251 57.1445 53.2928 57.6747 53.4284 58.0902C53.5636 58.5062 53.7409 58.8367 53.9597 59.0808C54.1785 59.3251 54.4333 59.4968 54.7253 59.5954C55.0168 59.6944 55.3192 59.7436 55.6315 59.7436ZM60.945 56.1653V56.5228C60.9428 57.5111 60.8019 58.3531 60.5228 59.0496C60.2414 59.7516 59.8587 60.3284 59.3742 60.7808C58.8899 61.2332 58.3247 61.5637 57.6789 61.7714C57.0326 61.9792 56.3505 62.0834 55.6315 62.0834C54.9126 62.0834 54.2303 61.9792 53.5845 61.7714C52.9385 61.5637 52.3734 61.2332 51.8892 60.7808C51.4043 60.3284 51.0217 59.7516 50.7404 59.0496C50.4592 58.3476 50.3184 57.4978 50.3184 56.4994V56.1877C50.3184 55.2309 50.4592 54.4095 50.7404 53.7231C51.0217 53.0367 51.4043 52.4755 51.8892 52.0387C52.3734 51.6022 52.9385 51.2797 53.5845 51.0715C54.2303 50.8638 54.9126 50.7595 55.6315 50.7595C56.3505 50.7595 57.0326 50.8638 57.6789 51.0715C58.3247 51.2797 58.8899 51.6022 59.3742 52.0387C59.8587 52.4755 60.2414 53.0367 60.5228 53.7231C60.8019 54.4042 60.9428 55.2181 60.945 56.1653Z" fill="white"/>
<path d="M33.1406 24.0064C37.4062 24.5248 41.332 26.1419 44.6253 28.5653C50.6514 33.0001 54.5606 40.1343 54.5606 48.1797H60.5216C60.5216 47.2832 60.4727 46.3978 60.3783 45.5269C59.7311 39.5666 56.93 34.2518 52.7677 30.374C48.4086 26.3124 42.5552 23.8262 36.1216 23.8262C35.1124 23.8262 34.1175 23.8874 33.1406 24.0064Z" fill="white"/>
<path d="M39.4799 43.0237C39.4799 44.8253 39.1863 46.5592 38.6443 48.1797H36.7388C36.8671 47.7971 36.9726 47.4047 37.0551 47.0032C37.1932 46.3341 37.2652 45.6406 37.2652 44.9297C37.2652 44.8213 37.2635 44.7128 37.2602 44.6051V44.6016C37.2635 44.5373 37.2652 44.4727 37.2652 44.4075C37.2652 44.1382 37.2366 43.8756 37.1828 43.6218C37.1828 43.6218 37.1828 43.6201 37.1819 43.6184C36.8409 40.9486 35.4724 38.5986 33.485 36.9774C31.4968 38.5986 30.1283 40.9486 29.7873 43.6184C29.7866 43.6201 29.7866 43.6218 29.7866 43.6218C29.7326 43.8756 29.7039 44.1382 29.7039 44.4075C29.7039 44.4727 29.7057 44.5373 29.7089 44.6016V44.6051C29.7057 44.7128 29.7039 44.8213 29.7039 44.9297C29.7039 45.6406 29.776 46.3341 29.9141 47.0032C29.9966 47.4047 30.102 47.7971 30.2304 48.1797H28.3248C27.7827 46.5592 27.4893 44.8253 27.4893 43.0237C27.4893 42.8514 27.4916 42.6809 27.4982 42.5104C27.5138 41.9832 27.5546 41.4628 27.6202 40.9504C27.6208 40.9486 27.6208 40.9471 27.6208 40.9454C27.8939 38.8066 28.5823 36.7971 29.6043 35.0011C30.6041 33.241 31.9236 31.6857 33.4841 30.4121C35.0448 31.6851 36.3644 33.2403 37.3649 35.0002V35.0011C38.386 36.7971 39.0753 38.8052 39.3483 40.9437V40.9454C39.3483 40.9471 39.3483 40.9486 39.349 40.9504C39.4146 41.4628 39.4554 41.9832 39.471 42.5104V42.5154C39.4775 42.6841 39.4799 42.8531 39.4799 43.0237Z" fill="#ED7407"/>
<path d="M36.5865 20.269C22.9825 22.1751 12.4893 33.7546 12.3111 47.8161C12.3089 47.9375 12.3081 48.0585 12.3081 48.1798H4.38184C4.38184 48.0467 4.38294 47.9135 4.38485 47.7803C4.38596 47.6709 4.38793 47.5615 4.39094 47.4521C4.7396 33.7258 14.9208 22.4374 28.1684 20.3436C29.6195 20.113 31.1067 19.9937 32.6228 19.9937C33.9677 19.9937 35.2916 20.087 36.5865 20.269Z" fill="white"/>
<path d="M30.3545 -0.164551H36.5853V20.2688L30.3545 20.9929V-0.164551Z" fill="white"/>
</g>
</svg>
