<svg width="24" height="24" viewBox="0 0 24 24" fill="none" xmlns="http://www.w3.org/2000/svg">
<g clip-path="url(#clip0_155_412)">
<path fill-rule="evenodd" clip-rule="evenodd" d="M0 12C0 19.0858 5.745 24.8308 12.8308 24.8308C19.9166 24.8308 25.6616 19.0858 25.6616 12C25.6616 4.91419 19.9166 -0.830811 12.8308 -0.830811C5.745 -0.830811 0 4.91419 0 12ZM10.4785 17.8808L10.6966 14.61L16.6469 9.24031C16.9078 9.00935 16.5892 8.89601 16.2427 9.10665L8.90031 13.7386L5.72789 12.7485C5.04358 12.5389 5.03823 12.0684 5.88186 11.7306L18.2422 6.96391C18.8057 6.70729 19.351 7.0997 19.135 7.96364L17.0308 17.8829C16.8832 18.5876 16.4577 18.7554 15.8674 18.4304L12.6608 16.062L11.12 17.56L11.1051 17.5739C10.934 17.7418 10.7907 17.8808 10.4785 17.8808Z" fill="#283430"/>
</g>
<defs>
<clipPath id="clip0_155_412">
<rect width="24" height="24" rx="6" fill="white"/>
</clipPath>
</defs>
</svg>
