<svg width="30" height="30" viewBox="0 0 30 30" fill="none" xmlns="http://www.w3.org/2000/svg">
<path d="M6.98506 16.4162L6.95687 16.41H19.0414L15.2425 20.2173C15.0564 20.4032 14.9544 20.655 14.9544 20.9193C14.9544 21.1836 15.0564 21.4336 15.2425 21.6199L15.8336 22.2113C16.0194 22.3972 16.2671 22.5 16.5313 22.5C16.7956 22.5 17.0434 22.398 17.2293 22.2121L23.7414 15.7006C23.928 15.514 24.03 15.2654 24.0293 15.001C24.03 14.7351 23.928 14.4863 23.7414 14.3L17.2293 7.78792C17.0434 7.60219 16.7957 7.5 16.5313 7.5C16.2671 7.5 16.0194 7.60234 15.8336 7.78792L15.2425 8.37933C15.0564 8.56492 14.9544 8.81276 14.9544 9.07704C14.9544 9.34118 15.0564 9.57595 15.2425 9.76168L19.0843 13.5903L6.97155 13.5903C6.42727 13.5903 5.96992 14.0594 5.96992 14.6034V15.4398C5.96992 15.9838 6.44078 16.4162 6.98506 16.4162Z" fill="white"/>
</svg>
