<svg width="24" height="24" viewBox="0 0 24 24" fill="none" xmlns="http://www.w3.org/2000/svg">
<rect x="0.4" y="0.4" width="23.2" height="23.2" rx="11.6" fill="none" stroke="#ED7407" stroke-width="0.8"/>
<g clip-path="url(#clip0_430_14817)">
<path d="M13.8849 10.7433C12.6443 9.50268 12.1487 7.68008 12.5917 5.98242L13.1968 3.66323C13.3438 3.10013 12.6044 2.74906 12.2609 3.21882L10.5193 5.60069C9.66719 6.76616 9.25906 8.1981 9.37015 9.63761C9.48125 11.0771 10.1047 12.4321 11.1256 13.4531C12.3748 14.7022 12.874 16.5388 12.4285 18.2483L11.8838 20.337C11.7378 20.897 12.47 21.2492 12.8164 20.7857L14.4501 18.6013C15.3163 17.4427 15.736 16.0106 15.6324 14.5677C15.5284 13.1243 14.9081 11.7666 13.8849 10.7433ZM20.0419 12.2067C19.9409 10.9416 19.3928 9.75376 18.4957 8.85609C17.5166 7.87695 17.0704 6.47742 17.302 5.1123L17.5556 3.61756C17.6494 3.06434 16.929 2.76671 16.6051 3.2249L15.6838 4.52797C14.9521 5.56286 14.6084 6.82828 14.716 8.09112C14.8236 9.35397 15.3764 10.543 16.2726 11.4392C17.2565 12.4231 17.7086 13.8302 17.4819 15.2031L17.2659 16.5116C17.1752 17.0608 17.8868 17.3576 18.2133 16.9068L19.0442 15.7594C19.7883 14.7313 20.142 13.4718 20.0419 12.2067ZM8.7404 12.7293C7.7613 11.7502 7.31506 10.3506 7.54667 8.98546L7.80028 7.49076C7.89415 6.93751 7.17373 6.63991 6.84976 7.0981L5.9285 8.40113C5.19686 9.43606 4.85317 10.7015 4.96075 11.9643C5.06833 13.2271 5.62116 14.4162 6.51736 15.3124C7.50128 16.2963 7.95335 17.7033 7.72667 19.0762L7.51063 20.3848C7.41996 20.9339 8.13156 21.2308 8.45802 20.78L9.28901 19.6326C10.0327 18.6056 10.387 17.3439 10.2866 16.0799C10.1861 14.8158 9.63702 13.6259 8.7404 12.7293Z" fill="#ED7407"/>
</g>
<defs>
<clipPath id="clip0_430_14817">
<rect width="18" height="18" fill="white" transform="translate(3.5 3)"/>
</clipPath>
</defs>
</svg>
