<svg width="25" height="25" viewBox="0 0 25 25" fill="none" xmlns="http://www.w3.org/2000/svg">
<rect x="0.416667" y="0.416667" width="24.1667" height="24.1667" rx="12.0833" fill="none" stroke="#ED7407" stroke-width="0.833333"/>
<path d="M12.9427 15.2756C12.8657 15.2756 12.7919 15.3062 12.7374 15.3606C12.6829 15.4151 12.6523 15.489 12.6523 15.566C12.6523 15.643 12.6829 15.7169 12.7374 15.7713C12.7919 15.8258 12.8657 15.8564 12.9427 15.8564C13.0181 15.8663 13.0902 15.8937 13.1531 15.9364C13.2161 15.979 13.2683 16.0357 13.3055 16.1021C13.3497 16.1651 13.4173 16.208 13.4932 16.2212C13.569 16.2345 13.6471 16.2171 13.7101 16.1728C13.7732 16.1285 13.816 16.061 13.8293 15.9851C13.8426 15.9092 13.8251 15.8311 13.7809 15.7681C13.692 15.6238 13.5692 15.5034 13.4231 15.4175C13.277 15.3317 13.1121 15.2829 12.9427 15.2756ZM16.4142 15.2756C16.2448 15.2831 16.0798 15.332 15.9337 15.4181C15.7876 15.5041 15.6648 15.6247 15.5761 15.7693C15.5318 15.8323 15.5144 15.9104 15.5277 15.9862C15.5409 16.0621 15.5838 16.1297 15.6468 16.1739C15.7099 16.2182 15.7879 16.2357 15.8638 16.2224C15.9397 16.2091 16.0072 16.1663 16.0515 16.1032C16.0887 16.0369 16.1409 15.9802 16.2039 15.9375C16.2668 15.8949 16.3388 15.8675 16.4142 15.8575C16.4913 15.8575 16.5651 15.8269 16.6196 15.7725C16.674 15.718 16.7046 15.6442 16.7046 15.5671C16.7046 15.4901 16.674 15.4163 16.6196 15.3618C16.5651 15.3073 16.4913 15.2767 16.4142 15.2767V15.2756ZM14.7473 13.4414C14.8227 13.4514 14.8947 13.4789 14.9577 13.5216C15.0206 13.5643 15.0728 13.621 15.11 13.6874C15.1544 13.7504 15.2219 13.7932 15.2978 13.8064C15.3737 13.8196 15.4517 13.8021 15.5147 13.7578C15.5777 13.7135 15.6205 13.6459 15.6337 13.57C15.6469 13.4941 15.6295 13.4161 15.5851 13.3531C15.4965 13.2085 15.3738 13.0879 15.2277 13.0019C15.0817 12.9158 14.9167 12.8669 14.7473 12.8594C14.6703 12.8594 14.5964 12.89 14.542 12.9445C14.4875 12.9989 14.4569 13.0728 14.4569 13.1498C14.4569 13.2268 14.4875 13.3007 14.542 13.3552C14.5964 13.4096 14.6703 13.4402 14.7473 13.4402V13.4414ZM17.381 13.3531C17.359 13.3843 17.3434 13.4195 17.3351 13.4567C17.3267 13.4939 17.3257 13.5324 17.3322 13.57C17.3388 13.6075 17.3526 13.6435 17.373 13.6757C17.3934 13.7079 17.4199 13.7358 17.4511 13.7578C17.4823 13.7797 17.5175 13.7954 17.5547 13.8037C17.5919 13.8121 17.6304 13.813 17.668 13.8065C17.7056 13.8 17.7415 13.7862 17.7737 13.7658C17.8059 13.7454 17.8338 13.7188 17.8558 13.6876C17.893 13.6213 17.9452 13.5646 18.0081 13.5219C18.0711 13.4792 18.1431 13.4517 18.2185 13.4417C18.2955 13.4417 18.3694 13.4111 18.4239 13.3566C18.4783 13.3022 18.5089 13.2283 18.5089 13.1513C18.5089 13.0742 18.4783 13.0004 18.4239 12.9459C18.3694 12.8915 18.2955 12.8609 18.2185 12.8609C18.0493 12.8682 17.8845 12.9169 17.7385 13.0027C17.5925 13.0885 17.4697 13.2088 17.381 13.3531ZM16.1993 10.736C16.1993 10.813 16.2299 10.8869 16.2844 10.9413C16.3389 10.9958 16.4127 11.0264 16.4897 11.0264C16.5651 11.0365 16.6371 11.0639 16.7001 11.1066C16.763 11.1493 16.8152 11.2061 16.8525 11.2724C16.8741 11.3042 16.9019 11.3315 16.9342 11.3525C16.9664 11.3735 17.0026 11.3879 17.0405 11.3948C17.0784 11.4017 17.1173 11.401 17.1549 11.3928C17.1925 11.3845 17.2281 11.3689 17.2597 11.3467C17.2912 11.3246 17.318 11.2964 17.3385 11.2637C17.359 11.2311 17.3728 11.1948 17.3791 11.1568C17.3854 11.1188 17.3841 11.0799 17.3753 11.0424C17.3664 11.0049 17.3502 10.9696 17.3276 10.9384C17.2389 10.7939 17.1162 10.6733 16.9701 10.5872C16.8241 10.5012 16.6591 10.4522 16.4897 10.4447C16.4515 10.4447 16.4137 10.4522 16.3784 10.4669C16.3431 10.4815 16.3111 10.503 16.2841 10.5301C16.2571 10.5571 16.2357 10.5892 16.2212 10.6246C16.2067 10.6599 16.1992 10.6978 16.1993 10.736ZM19.9609 15.2756C19.7916 15.2831 19.6266 15.332 19.4806 15.4181C19.3345 15.5042 19.2118 15.6247 19.1231 15.7693C19.0803 15.8323 19.064 15.9097 19.0776 15.9846C19.0913 16.0596 19.134 16.1262 19.1963 16.1701C19.2587 16.2139 19.3358 16.2315 19.411 16.2189C19.4862 16.2064 19.5534 16.1649 19.5982 16.1032C19.6355 16.0369 19.6876 15.9802 19.7506 15.9376C19.8135 15.8949 19.8856 15.8675 19.9609 15.8575C20.038 15.8575 20.1118 15.8269 20.1663 15.7725C20.2207 15.718 20.2513 15.6442 20.2513 15.5671C20.2513 15.4901 20.2207 15.4163 20.1663 15.3618C20.1118 15.3073 20.038 15.2767 19.9609 15.2767V15.2756Z" fill="#ED7407"/>
<path d="M20.3025 14.2685C20.2113 13.0093 19.4717 11.9999 18.5325 11.8291C18.4326 10.4465 17.5512 9.36068 16.4819 9.36068H12.0603L10.6954 7.61158C10.6567 7.56217 10.6032 7.52659 10.5427 7.51015C10.4822 7.49372 10.418 7.49731 10.3597 7.52039L9.48844 7.86539C9.45104 7.88017 9.41712 7.90255 9.38883 7.93112C9.36054 7.95969 9.33848 7.99383 9.32407 8.03136C9.30966 8.0689 9.30319 8.10902 9.30509 8.14919C9.30699 8.18935 9.31721 8.22869 9.33511 8.26469L9.88107 9.36068H8.51617C7.4469 9.36068 6.56552 10.4456 6.46562 11.8291C5.52646 11.9996 4.7868 13.009 4.69561 14.2685C3.69256 14.4512 2.91602 15.5913 2.91602 16.9693C2.91602 17.0463 2.94661 17.1202 3.00107 17.1746C3.05553 17.2291 3.1294 17.2597 3.20642 17.2597H21.7923C21.8693 17.2597 21.9432 17.2291 21.9976 17.1746C22.0521 17.1202 22.0827 17.0463 22.0827 16.9693C22.0827 15.5913 21.3061 14.4512 20.3025 14.2685ZM16.9858 12.3809C16.7756 12.6031 16.6051 12.8597 16.4819 13.1397C16.3588 12.8597 16.1883 12.6031 15.9781 12.3809H16.9858ZM14.7119 12.3809C15.46 12.3809 16.08 13.1914 16.1782 14.2395H13.2451C13.3436 13.194 13.9639 12.3809 14.7119 12.3809ZM14.7119 14.8203H15.2158C15.0055 15.0423 14.8351 15.2989 14.7119 15.5788C14.5888 15.2989 14.4184 15.0423 14.2081 14.8203H14.7119ZM19.7182 14.2395H16.7857C16.8844 13.194 17.5039 12.3809 18.2523 12.3809C19.0006 12.3809 19.6203 13.194 19.7182 14.2395ZM18.7558 14.8203C18.5455 15.0423 18.3751 15.2989 18.252 15.5788C18.1289 15.2988 17.9585 15.0422 17.7481 14.8203H18.7558ZM17.9485 11.8001H15.0154C15.1025 10.8769 15.656 9.94149 16.4817 9.94149C17.23 9.94294 17.8503 10.7546 17.9485 11.8001ZM9.99636 8.29025L10.3713 8.14185L11.3235 9.36155H10.5301L9.99636 8.29025ZM8.51675 9.94294H15.2158C15.0348 10.132 14.8836 10.3474 14.7671 10.5818H11.6142C11.5372 10.5818 11.4633 10.6124 11.4089 10.6669C11.3544 10.7213 11.3238 10.7952 11.3238 10.8722C11.3238 10.9493 11.3544 11.0231 11.4089 11.0776C11.4633 11.132 11.5372 11.1626 11.6142 11.1626H14.5473C14.4894 11.3711 14.4513 11.5845 14.4334 11.8001H7.05021C7.14836 10.7546 7.76867 9.94294 8.51675 9.94294ZM6.74644 12.3809H13.4458C12.9804 12.8929 12.7043 13.5488 12.6634 14.2395H5.28049C5.37835 13.194 5.99836 12.3809 6.74644 12.3809ZM4.97788 14.8203H11.6755C11.2102 15.3323 10.9342 15.9882 10.8934 16.6789H3.51018C3.60834 15.6317 4.22864 14.8203 4.97788 14.8203ZM12.9428 16.6789H11.4757C11.5735 15.6308 12.1936 14.8203 12.9416 14.8203C13.6897 14.8203 14.31 15.6305 14.4082 16.6789H12.9428ZM15.0169 16.6789C15.115 15.6308 15.735 14.8203 16.4831 14.8203C17.2312 14.8203 17.8515 15.6305 17.9497 16.6789H15.0169ZM18.5569 16.6789C18.655 15.6308 19.2751 14.8203 20.0231 14.8203C20.7712 14.8203 21.3915 15.6305 21.4897 16.6789H18.5569Z" fill="#ED7407"/>
<path d="M10.1924 10.5818H9.01622C8.9392 10.5818 8.86533 10.6124 8.81087 10.6668C8.75641 10.7213 8.72581 10.7952 8.72581 10.8722C8.72581 10.9492 8.75641 11.0231 8.81087 11.0775C8.86533 11.132 8.9392 11.1626 9.01622 11.1626H10.1924C10.2694 11.1626 10.3432 11.132 10.3977 11.0775C10.4522 11.0231 10.4828 10.9492 10.4828 10.8722C10.4828 10.7952 10.4522 10.7213 10.3977 10.6668C10.3432 10.6124 10.2694 10.5818 10.1924 10.5818ZM9.59702 13.0197H6.69298C6.61596 13.0197 6.5421 13.0503 6.48764 13.1048C6.43318 13.1592 6.40258 13.2331 6.40258 13.3101C6.40258 13.3872 6.43318 13.461 6.48764 13.5155C6.5421 13.5699 6.61596 13.6005 6.69298 13.6005H9.59702C9.67405 13.6005 9.74791 13.5699 9.80237 13.5155C9.85683 13.461 9.88743 13.3872 9.88743 13.3101C9.88743 13.2331 9.85683 13.1592 9.80237 13.1048C9.74791 13.0503 9.67405 13.0197 9.59702 13.0197ZM9.88743 15.4591H7.5642C7.48718 15.4591 7.41331 15.4897 7.35885 15.5442C7.30439 15.5986 7.27379 15.6725 7.27379 15.7495C7.27379 15.8265 7.30439 15.9004 7.35885 15.9549C7.41331 16.0093 7.48718 16.0399 7.5642 16.0399H9.88743C9.96445 16.0399 10.0383 16.0093 10.0928 15.9549C10.1472 15.9004 10.1778 15.8265 10.1778 15.7495C10.1778 15.6725 10.1472 15.5986 10.0928 15.5442C10.0383 15.4897 9.96445 15.4591 9.88743 15.4591ZM11.9203 13.0197H10.7662C10.6892 13.0197 10.6153 13.0503 10.5608 13.1048C10.5064 13.1592 10.4758 13.2331 10.4758 13.3101C10.4758 13.3872 10.5064 13.461 10.5608 13.5155C10.6153 13.5699 10.6892 13.6005 10.7662 13.6005H11.9203C11.9973 13.6005 12.0711 13.5699 12.1256 13.5155C12.1801 13.461 12.2107 13.3872 12.2107 13.3101C12.2107 13.2331 12.1801 13.1592 12.1256 13.1048C12.0711 13.0503 11.9973 13.0197 11.9203 13.0197ZM6.11218 15.4591H4.95056C4.87354 15.4591 4.79968 15.4897 4.74521 15.5442C4.69075 15.5986 4.66016 15.6725 4.66016 15.7495C4.66016 15.8265 4.69075 15.9004 4.74521 15.9549C4.79968 16.0093 4.87354 16.0399 4.95056 16.0399H6.11218C6.1892 16.0399 6.26306 16.0093 6.31752 15.9549C6.37198 15.9004 6.40258 15.8265 6.40258 15.7495C6.40258 15.6725 6.37198 15.5986 6.31752 15.5442C6.26306 15.4897 6.1892 15.4591 6.11218 15.4591Z" fill="#ED7407"/>
</svg>
