<svg width="25" height="25" viewBox="0 0 25 25" fill="none" xmlns="http://www.w3.org/2000/svg">
<rect x="0.5" y="0.5" width="24" height="24" rx="12" stroke="#ED7407"/>
<path d="M6.94531 13.4062C6.94531 12.191 6.33162 11.3848 5.92578 11.3848C5.51994 11.3848 4.90625 12.1907 4.90625 13.4062C4.90625 14.6218 5.51994 15.4277 5.92578 15.4277C6.33162 15.4277 6.94531 14.6213 6.94531 13.4062ZM5.39844 13.4062C5.39844 12.4995 5.77348 12.0017 5.92578 11.8919C6.07808 12.0014 6.45312 12.4992 6.45312 13.4062C6.45312 14.3133 6.07808 14.8108 5.92578 14.9206C5.77348 14.8105 5.39844 14.3127 5.39844 13.4062Z" fill="#ED7407"/>
<path d="M21.4523 12.7299C21.4523 12.7262 21.4523 12.7224 21.4509 12.7188C21.2251 11.1568 20.2452 9.97826 19.0744 9.97826H16.9252V7.97463C16.9252 7.44406 16.1696 7.16632 15.4233 7.16632C14.7193 7.16632 14.0078 7.41354 13.9292 7.88688L12.4968 9.97826H5.92578C4.58816 9.97826 3.5 11.516 3.5 13.4063C3.5 15.2966 4.58816 16.8337 5.92578 16.8337H19.0742C20.4118 16.8337 21.5 15.296 21.5 13.4063C21.5001 13.18 21.4841 12.9539 21.4523 12.7299ZM15.4233 7.65851C16.0858 7.65851 16.433 7.89335 16.433 7.97463C16.433 8.05591 16.0858 8.29076 15.4233 8.29076C14.7608 8.29076 14.4135 8.05591 14.4135 7.97463C14.4135 7.89335 14.7607 7.65851 15.4233 7.65851ZM3.99219 13.4063C3.99219 11.7875 4.85956 10.4707 5.92578 10.4707C6.992 10.4707 7.85938 11.7873 7.85938 13.4063C7.85938 15.0253 6.992 16.3415 5.92578 16.3415C4.85956 16.3415 3.99219 15.0247 3.99219 13.4063ZM19.0742 16.3415H7.17734C7.43102 16.1192 7.64501 15.8552 7.81016 15.5611H12.0781C12.1434 15.5611 12.206 15.5351 12.2521 15.489C12.2983 15.4428 12.3242 15.3802 12.3242 15.315C12.3242 15.2497 12.2983 15.1871 12.2521 15.141C12.206 15.0948 12.1434 15.0689 12.0781 15.0689H8.04598C8.45829 13.9986 8.45829 12.8134 8.04598 11.7431H10.8711C10.9364 11.7431 10.999 11.7172 11.0452 11.671C11.0913 11.6249 11.1172 11.5623 11.1172 11.497C11.1172 11.4317 11.0913 11.3691 11.0452 11.323C10.999 11.2768 10.9364 11.2509 10.8711 11.2509H7.8103C7.64515 10.9568 7.43116 10.6928 7.17748 10.4704H12.6266C12.6666 10.4704 12.7059 10.4607 12.7413 10.442C12.7767 10.4234 12.807 10.3964 12.8296 10.3634L14.1549 8.42815C14.4931 8.7094 14.9986 8.78252 15.4233 8.78252C15.7699 8.79008 16.1142 8.72353 16.433 8.58734V10.2244C16.433 10.2896 16.4589 10.3522 16.5051 10.3984C16.5512 10.4445 16.6138 10.4704 16.6791 10.4704H19.0742C19.9379 10.4704 20.6709 11.3349 20.9182 12.5236H18.1367C18.0714 12.5236 18.0088 12.5495 17.9627 12.5957C17.9165 12.6418 17.8906 12.7044 17.8906 12.7697C17.8906 12.8349 17.9165 12.8975 17.9627 12.9437C18.0088 12.9898 18.0714 13.0158 18.1367 13.0158H20.9887C20.9999 13.1437 21.0078 13.2734 21.0078 13.406C21.0078 15.0247 20.1404 16.3415 19.0742 16.3415Z" fill="#ED7407"/>
<path d="M12.7546 11.7431H19.0156C19.0809 11.7431 19.1435 11.7172 19.1896 11.671C19.2358 11.6249 19.2617 11.5623 19.2617 11.497C19.2617 11.4317 19.2358 11.3691 19.1896 11.323C19.1435 11.2768 19.0809 11.2509 19.0156 11.2509H12.7546C12.6893 11.2509 12.6267 11.2768 12.5806 11.323C12.5344 11.3691 12.5085 11.4317 12.5085 11.497C12.5085 11.5623 12.5344 11.6249 12.5806 11.671C12.6267 11.7172 12.6893 11.7431 12.7546 11.7431ZM14.0188 12.7697C14.0188 12.7044 13.9929 12.6418 13.9467 12.5957C13.9006 12.5495 13.838 12.5236 13.7727 12.5236H10.6991C10.6338 12.5236 10.5712 12.5495 10.525 12.5957C10.4789 12.6418 10.453 12.7044 10.453 12.7697C10.453 12.8349 10.4789 12.8975 10.525 12.9437C10.5712 12.9898 10.6338 13.0158 10.6991 13.0158H13.7726C13.8049 13.0158 13.8369 13.0094 13.8668 12.9971C13.8967 12.9847 13.9238 12.9666 13.9467 12.9437C13.9695 12.9209 13.9877 12.8937 14.0001 12.8639C14.0124 12.834 14.0188 12.802 14.0188 12.7697ZM18.7754 13.7962H12.5C12.4348 13.7962 12.3722 13.8222 12.326 13.8683C12.2799 13.9145 12.254 13.9771 12.254 14.0423C12.254 14.1076 12.2799 14.1702 12.326 14.2163C12.3722 14.2625 12.4348 14.2884 12.5 14.2884H18.7754C18.8407 14.2884 18.9033 14.2625 18.9495 14.2163C18.9956 14.1702 19.0215 14.1076 19.0215 14.0423C19.0215 13.9771 18.9956 13.9145 18.9495 13.8683C18.9033 13.8222 18.8407 13.7962 18.7754 13.7962ZM10.9297 13.7962H9.73438C9.66911 13.7962 9.60651 13.8222 9.56036 13.8683C9.51421 13.9145 9.48828 13.9771 9.48828 14.0423C9.48828 14.1076 9.51421 14.1702 9.56036 14.2163C9.60651 14.2625 9.66911 14.2884 9.73438 14.2884H10.9297C10.995 14.2884 11.0576 14.2625 11.1037 14.2163C11.1499 14.1702 11.1758 14.1076 11.1758 14.0423C11.1758 13.9771 11.1499 13.9145 11.1037 13.8683C11.0576 13.8222 10.995 13.7962 10.9297 13.7962ZM18.4766 15.0689H16.209C16.1438 15.0689 16.0812 15.0948 16.035 15.141C15.9889 15.1871 15.9629 15.2497 15.9629 15.315C15.9629 15.3802 15.9889 15.4428 16.035 15.489C16.0812 15.5351 16.1438 15.5611 16.209 15.5611H18.4766C18.5419 15.5611 18.6045 15.5351 18.6506 15.489C18.6968 15.4428 18.7227 15.3802 18.7227 15.315C18.7227 15.2497 18.6968 15.1871 18.6506 15.141C18.6045 15.0948 18.5419 15.0689 18.4766 15.0689Z" fill="#ED7407"/>
</svg>
