<svg width="24" height="24" viewBox="0 0 24 24" fill="none" xmlns="http://www.w3.org/2000/svg">
<rect x="0.4" y="0.4" width="23.2" height="23.2" rx="11.6" stroke="#ED7407" stroke-width="0.8"/>
<path d="M15.8166 19.2258C15.2151 19.2256 14.6304 19.028 14.1521 18.6634C13.6738 18.2988 13.3283 17.7873 13.1688 17.2074C13.0092 16.6275 13.0443 16.0113 13.2688 15.4533C13.4932 14.8953 13.8946 14.4264 14.4113 14.1185V6.93523C14.4113 6.56237 14.5594 6.20478 14.823 5.94113C15.0867 5.67748 15.4443 5.52936 15.8171 5.52936C16.19 5.52936 16.5476 5.67748 16.8112 5.94113C17.0749 6.20478 17.223 6.56237 17.223 6.93523V14.1187C17.7395 14.4268 18.1406 14.8958 18.3648 15.4538C18.5891 16.0118 18.624 16.6279 18.4644 17.2077C18.3047 17.7875 17.9592 18.2989 17.4809 18.6635C17.0026 19.028 16.4179 19.2255 15.8166 19.2258ZM15.8166 6.10493C15.5966 6.10531 15.3857 6.19294 15.2302 6.3486C15.0748 6.50426 14.9874 6.71523 14.9873 6.93523V14.4647L14.8303 14.5449C14.3963 14.7664 14.0495 15.1275 13.8458 15.5701C13.642 16.0127 13.5931 16.511 13.707 16.9848C13.821 17.4585 14.091 17.8801 14.4737 18.1817C14.8564 18.4833 15.3295 18.6473 15.8167 18.6473C16.304 18.6473 16.777 18.4833 17.1597 18.1817C17.5424 17.8801 17.8125 17.4585 17.9264 16.9848C18.0403 16.511 17.9914 16.0127 17.7877 15.5701C17.5839 15.1275 17.2371 14.7664 16.8031 14.5449L16.6463 14.4647V6.93523C16.646 6.71521 16.5585 6.50429 16.403 6.34866C16.2474 6.19303 16.0366 6.10538 15.8166 6.10493Z" fill="#ED7407"/>
<path d="M15.8165 18.0147C15.5109 18.0147 15.2122 17.9242 14.9581 17.7544C14.7041 17.5847 14.506 17.3434 14.3891 17.0611C14.2722 16.7788 14.2416 16.4682 14.3012 16.1685C14.3608 15.8689 14.5079 15.5936 14.724 15.3775C14.94 15.1615 15.2153 15.0143 15.515 14.9547C15.8147 14.8951 16.1253 14.9257 16.4076 15.0427C16.6899 15.1596 16.9311 15.3576 17.1009 15.6117C17.2706 15.8658 17.3612 16.1645 17.3611 16.47C17.3607 16.8795 17.1978 17.2722 16.9082 17.5617C16.6186 17.8513 16.226 18.0142 15.8165 18.0147ZM15.8165 15.5012C15.6248 15.5012 15.4375 15.558 15.2782 15.6644C15.1188 15.7708 14.9946 15.9221 14.9213 16.0992C14.8479 16.2762 14.8287 16.471 14.8661 16.6589C14.9035 16.8469 14.9957 17.0195 15.1312 17.155C15.2667 17.2905 15.4393 17.3828 15.6273 17.4202C15.8152 17.4576 16.01 17.4384 16.187 17.3651C16.3641 17.2918 16.5154 17.1676 16.6219 17.0083C16.7283 16.849 16.7851 16.6616 16.7851 16.47C16.7849 16.2132 16.6827 15.9669 16.5011 15.7853C16.3195 15.6037 16.0733 15.5015 15.8165 15.5012Z" fill="#ED7407"/>
<path d="M15.5297 7.17648H16.1057V15.2132H15.5297V7.17648ZM5.17478 12.5431C4.20998 11.1724 4.27421 10.3468 5.46278 8.86307C6.4247 7.66168 5.26118 6.50853 5.21064 6.46L5.61168 6.04657C6.1655 6.58341 6.94094 7.93845 5.9125 9.22307C4.82515 10.5808 4.88765 11.1337 5.64653 12.2115L5.17478 12.5431ZM7.80739 10.352C6.84173 8.98115 6.9061 8.1556 8.09438 6.67197C9.05645 5.47057 7.89278 4.31742 7.84224 4.26889L8.24328 3.85547C8.7971 4.39244 9.57269 5.74734 8.5441 7.03197C7.45661 8.3896 7.5191 8.94241 8.27813 10.0205L7.80739 10.352ZM9.93341 12.5535C8.96774 11.1832 9.03226 10.3572 10.2204 8.87344C11.1823 7.67205 10.0188 6.51889 9.96826 6.47037L10.3693 6.0568C10.9231 6.59392 11.698 7.94881 10.6701 9.23344C9.58277 10.5912 9.64526 11.144 10.4041 12.222L9.93341 12.5535Z" fill="#ED7407"/>
</svg>
