<svg width="25" height="25" viewBox="0 0 25 25" fill="none" xmlns="http://www.w3.org/2000/svg">
<rect x="0.416667" y="0.416667" width="24.1667" height="24.1667" rx="12.0833" stroke="#ED7407" stroke-width="0.833333"/>
<path d="M12.6092 21C11.8187 20.9997 11.0503 20.7401 10.4217 20.2609C9.79306 19.7817 9.33907 19.1095 9.12938 18.3474C8.91968 17.5853 8.96587 16.7755 9.26085 16.0421C9.55583 15.3088 10.0833 14.6926 10.7623 14.288V4.84761C10.7623 4.3576 10.957 3.88765 11.3035 3.54115C11.65 3.19466 12.1199 3 12.6099 3C13.0999 3 13.5699 3.19466 13.9164 3.54115C14.2629 3.88765 14.4575 4.3576 14.4575 4.84761V14.2882C15.1363 14.6931 15.6634 15.3095 15.9581 16.0428C16.2528 16.7761 16.2988 17.5859 16.0889 18.3479C15.8791 19.1098 15.4251 19.7819 14.7965 20.261C14.1679 20.7401 13.3995 20.9997 12.6092 21ZM12.6092 3.75642C12.32 3.75692 12.0429 3.87209 11.8386 4.07666C11.6343 4.28122 11.5194 4.55849 11.5193 4.84761V14.7429L11.313 14.8483C10.7427 15.1395 10.2869 15.6141 10.0191 16.1957C9.75131 16.7774 9.6871 17.4323 9.8368 18.0549C9.9865 18.6775 10.3414 19.2316 10.8443 19.6279C11.3473 20.0243 11.969 20.2398 12.6094 20.2398C13.2497 20.2398 13.8714 20.0243 14.3744 19.6279C14.8773 19.2316 15.2322 18.6775 15.3819 18.0549C15.5316 17.4323 15.4674 16.7774 15.1996 16.1957C14.9318 15.6141 14.476 15.1395 13.9057 14.8483L13.6996 14.7429V4.84761C13.6992 4.55846 13.5842 4.28126 13.3798 4.07673C13.1754 3.8722 12.8983 3.75702 12.6092 3.75642Z" fill="#ED7407"/>
<path d="M12.6086 19.4084C12.207 19.4085 11.8144 19.2894 11.4805 19.0664C11.1466 18.8433 10.8864 18.5262 10.7327 18.1552C10.579 17.7842 10.5388 17.376 10.6171 16.9822C10.6955 16.5883 10.8888 16.2266 11.1728 15.9426C11.4567 15.6587 11.8185 15.4653 12.2123 15.387C12.6062 15.3086 13.0144 15.3489 13.3854 15.5025C13.7564 15.6562 14.0735 15.9165 14.2965 16.2504C14.5196 16.5843 14.6386 16.9768 14.6386 17.3784C14.638 17.9166 14.4239 18.4326 14.0433 18.8131C13.6627 19.1937 13.1468 19.4078 12.6086 19.4084ZM12.6086 16.1051C12.3567 16.1051 12.1105 16.1797 11.9011 16.3196C11.6917 16.4595 11.5285 16.6584 11.4321 16.891C11.3357 17.1237 11.3104 17.3797 11.3596 17.6267C11.4087 17.8737 11.5299 18.1006 11.708 18.2786C11.886 18.4567 12.1129 18.578 12.3599 18.6272C12.6069 18.6763 12.8629 18.6511 13.0956 18.5547C13.3282 18.4584 13.5271 18.2952 13.667 18.0858C13.8069 17.8764 13.8816 17.6302 13.8816 17.3784C13.8813 17.0408 13.747 16.7172 13.5084 16.4785C13.2697 16.2398 12.9461 16.1055 12.6086 16.1051Z" fill="#ED7407"/>
<path d="M12.2324 9.47882H12.9894V15.7265H12.2324V9.47882Z" fill="#ED7407"/>
</svg>
