<svg width="20" height="20" viewBox="0 0 16.7742 20" fill="none" xmlns="http://www.w3.org/2000/svg">
  <path d="M15.8065 20H0.967742C0.434274 20 0 19.5657 0 19.0323V0.967742C0 0.434274 0.434274 0 0.967742 0H15.8065C16.3399 0 16.7742 0.434274 16.7742 0.967742V19.0323C16.7742 19.5657 16.3399 20 15.8065 20ZM0.967742 0.645161C0.789758 0.645161 0.645161 0.790081 0.645161 0.967742V19.0323C0.645161 19.2099 0.789758 19.3548 0.967742 19.3548H15.8065C15.9844 19.3548 16.129 19.2099 16.129 19.0323V0.967742C16.129 0.790081 15.9844 0.645161 15.8065 0.645161H0.967742Z" fill="currentColor"/>
  <path d="M6.9133 6.05581H2.70347C2.52516 6.05581 2.38089 5.91137 2.38089 5.73323V1.88097C2.38089 1.70283 2.52516 1.55839 2.70347 1.55839H6.91322C7.09153 1.55839 7.2358 1.70283 7.2358 1.88097V5.73323C7.2358 5.91137 7.09121 6.05581 6.91322 6.05581H6.9133ZM3.02609 5.41065H6.59068V2.20355H3.02609V5.41065Z" fill="currentColor"/>
  <path d="M4.67903 4.93323C4.61633 4.93335 4.55497 4.91505 4.50258 4.8806L3.84452 4.45125C3.77291 4.40448 3.7228 4.33119 3.7052 4.24749C3.6876 4.16379 3.70394 4.07653 3.75064 4.00488C3.84875 3.85585 4.04831 3.81347 4.1975 3.91097L4.63742 4.1981L5.76484 3.08387C5.89197 2.95867 6.09581 2.9596 6.22101 3.08669C6.25081 3.11681 6.27439 3.1525 6.29039 3.19173C6.30639 3.23096 6.31449 3.27296 6.31425 3.31533C6.314 3.3577 6.3054 3.3996 6.28895 3.43864C6.27249 3.47768 6.2485 3.5131 6.21835 3.54286L4.90585 4.83996C4.84551 4.89979 4.764 4.93332 4.67903 4.93323ZM14.0707 3.40314H9.01222C8.83379 3.40314 8.68964 3.25871 8.68964 3.08056C8.68964 2.90258 8.83379 2.75798 9.01222 2.75798H14.0707C14.1562 2.75798 14.2383 2.79197 14.2988 2.85246C14.3593 2.91296 14.3933 2.99501 14.3933 3.08056C14.3933 3.16612 14.3593 3.24817 14.2988 3.30866C14.2383 3.36916 14.1562 3.40314 14.0707 3.40314ZM14.0707 5.04125H9.01222C8.83379 5.04125 8.68964 4.89681 8.68964 4.71867C8.68964 4.54068 8.83379 4.39609 9.01222 4.39609H14.0707C14.1562 4.39609 14.2383 4.43007 14.2988 4.49057C14.3593 4.55107 14.3933 4.63311 14.3933 4.71867C14.3933 4.80422 14.3593 4.88627 14.2988 4.94677C14.2383 5.00726 14.1562 5.04125 14.0707 5.04125ZM6.9133 12.2488H2.70347C2.61791 12.2488 2.53586 12.2148 2.47537 12.1543C2.41487 12.0938 2.38089 12.0118 2.38089 11.9262V8.07379C2.38089 7.98824 2.41487 7.90619 2.47537 7.84569C2.53586 7.7852 2.61791 7.75121 2.70347 7.75121H6.91322C6.99878 7.75121 7.08083 7.7852 7.14132 7.84569C7.20182 7.90619 7.2358 7.98824 7.2358 8.07379V11.9262C7.2358 12.1042 7.09121 12.2488 6.91322 12.2488H6.9133ZM3.02609 11.6036H6.59068V8.39637H3.02609V11.6036Z" fill="currentColor"/>
  <path d="M4.67903 11.1262C4.61633 11.1263 4.55497 11.108 4.50258 11.0736L3.84452 10.6442C3.77291 10.5975 3.7228 10.5242 3.7052 10.4405C3.6876 10.3568 3.70394 10.2695 3.75064 10.1979C3.84875 10.0489 4.04831 10.0065 4.1975 10.104L4.63742 10.3911L5.76484 9.27687C5.89197 9.15167 6.09581 9.1526 6.22101 9.27969C6.25081 9.30981 6.27439 9.3455 6.29039 9.38473C6.30639 9.42396 6.31449 9.46596 6.31425 9.50833C6.314 9.5507 6.3054 9.5926 6.28895 9.63164C6.27249 9.67068 6.2485 9.7061 6.21835 9.73586L4.90585 11.0329C4.84551 11.0928 4.764 11.1263 4.67903 11.1262ZM14.0707 9.59614H9.01222C8.83379 9.59614 8.68964 9.45171 8.68964 9.27356C8.68964 9.09558 8.83379 8.95098 9.01222 8.95098H14.0707C14.1562 8.95098 14.2383 8.98497 14.2988 9.04546C14.3593 9.10596 14.3933 9.18801 14.3933 9.27356C14.3933 9.35912 14.3593 9.44117 14.2988 9.50166C14.2383 9.56216 14.1562 9.59614 14.0707 9.59614ZM14.0707 11.2343H9.01222C8.83379 11.2343 8.68964 11.0898 8.68964 10.9117C8.68964 10.7337 8.83379 10.5891 9.01222 10.5891H14.0707C14.1562 10.5891 14.2383 10.6231 14.2988 10.6836C14.3593 10.7441 14.3933 10.8261 14.3933 10.9117C14.3933 10.9972 14.3593 11.0793 14.2988 11.1398C14.2383 11.2003 14.1562 11.2343 14.0707 11.2343ZM6.9133 18.4418H2.70347C2.52516 18.4418 2.38089 18.2974 2.38089 18.1192V14.2668C2.38089 14.0888 2.52516 13.9442 2.70347 13.9442H6.91322C7.09153 13.9442 7.2358 14.0888 7.2358 14.2668V18.1192C7.2358 18.2974 7.09121 18.4418 6.91322 18.4418H6.9133ZM3.02609 17.7966H6.59068V14.5894H3.02609V17.7966Z" fill="currentColor"/>
  <path d="M4.67903 17.3192C4.61633 17.3193 4.55497 17.301 4.50258 17.2666L3.84452 16.8372C3.77291 16.7905 3.7228 16.7172 3.7052 16.6335C3.6876 16.5498 3.70394 16.4625 3.75064 16.3909C3.84875 16.2419 4.04831 16.1995 4.1975 16.297L4.63742 16.5841L5.76484 15.4699C5.89197 15.3447 6.09581 15.3456 6.22101 15.4727C6.25081 15.5028 6.27439 15.5385 6.29039 15.5777C6.30639 15.617 6.31449 15.659 6.31425 15.7013C6.314 15.7437 6.3054 15.7856 6.28895 15.8246C6.27249 15.8637 6.2485 15.8991 6.21835 15.9289L4.90585 17.2259C4.84551 17.2858 4.764 17.3193 4.67903 17.3192ZM14.0707 15.7891H9.01222C8.83379 15.7891 8.68964 15.6447 8.68964 15.4666C8.68964 15.2886 8.83379 15.144 9.01222 15.144H14.0707C14.1562 15.144 14.2383 15.178 14.2988 15.2385C14.3593 15.299 14.3933 15.381 14.3933 15.4666C14.3933 15.5521 14.3593 15.6342 14.2988 15.6947C14.2383 15.7552 14.1562 15.7891 14.0707 15.7891ZM14.0707 17.4273H9.01222C8.83379 17.4273 8.68964 17.2828 8.68964 17.1047C8.68964 16.9267 8.83379 16.7821 9.01222 16.7821H14.0707C14.1562 16.7821 14.2383 16.8161 14.2988 16.8766C14.3593 16.9371 14.3933 17.0191 14.3933 17.1047C14.3933 17.1902 14.3593 17.2723 14.2988 17.3328C14.2383 17.3933 14.1562 17.4273 14.0707 17.4273Z" fill="currentColor"/>
</svg>
