<svg width="20" height="20" viewBox="0 0 16.8329 20" fill="none" xmlns="http://www.w3.org/2000/svg">
  <path d="M10.9381 5.71919C10.9906 5.7192 11.0424 5.7089 11.0909 5.68885C11.1393 5.66881 11.1833 5.63942 11.2203 5.60236C11.2574 5.5653 11.2868 5.52131 11.3068 5.47289C11.3269 5.42447 11.3372 5.37258 11.3372 5.32017C11.3372 5.26777 11.3269 5.21587 11.3068 5.16746C11.2868 5.11904 11.2574 5.07505 11.2203 5.038C11.1833 5.00094 11.1393 4.97155 11.0909 4.9515C11.0424 4.93145 10.9906 4.92114 10.9381 4.92116H5.45958C5.40717 4.92114 5.35528 4.93144 5.30686 4.95149C5.25844 4.97153 5.21444 5.00092 5.17739 5.03798C5.14033 5.07504 5.11094 5.11903 5.0909 5.16745C5.07085 5.21587 5.06054 5.26777 5.06056 5.32017C5.06055 5.37257 5.07086 5.42447 5.09091 5.47288C5.11096 5.5213 5.14035 5.56529 5.1774 5.60235C5.21446 5.6394 5.25845 5.66879 5.30687 5.68884C5.35528 5.70889 5.40717 5.7192 5.45958 5.71919H10.9381Z" fill="currentColor"/>
  <path d="M16.4339 4.9212H13.7159C13.6635 4.92118 13.6116 4.93149 13.5632 4.95154C13.5148 4.97158 13.4708 5.00097 13.4337 5.03803C13.3967 5.07509 13.3673 5.11908 13.3473 5.1675C13.3272 5.21592 13.3169 5.26781 13.3169 5.32022C13.3169 5.37262 13.3272 5.42451 13.3473 5.47293C13.3673 5.52135 13.3967 5.56534 13.4338 5.60239C13.4708 5.63945 13.5148 5.66884 13.5632 5.68889C13.6116 5.70894 13.6635 5.71925 13.7159 5.71923H16.0349V19.2021H0.798081V5.71919H2.98415C3.03655 5.7192 3.08845 5.7089 3.13687 5.68885C3.18529 5.66881 3.22928 5.63942 3.26634 5.60236C3.30339 5.5653 3.33278 5.52131 3.35283 5.47289C3.37288 5.42447 3.38318 5.37258 3.38316 5.32017C3.38318 5.26777 3.37286 5.21587 3.35282 5.16746C3.33277 5.11904 3.30338 5.07505 3.26632 5.038C3.22927 5.00094 3.18528 4.97155 3.13686 4.9515C3.08844 4.93145 3.03655 4.92114 2.98415 4.92116H0.399114C0.34671 4.92114 0.294815 4.93144 0.246395 4.95149C0.197976 4.97153 0.153981 5.00092 0.116925 5.03798C0.0798689 5.07504 0.0504786 5.11903 0.0304331 5.16745C0.0103875 5.21587 7.98586e-05 5.26777 9.92093e-05 5.32017V19.601C8.63117e-05 19.6534 0.0103983 19.7053 0.0304462 19.7537C0.050494 19.8021 0.0798846 19.8461 0.116939 19.8832C0.153994 19.9202 0.197986 19.9496 0.246403 19.9697C0.294819 19.9897 0.346711 20 0.399114 20H16.4339C16.4863 20 16.5382 19.9897 16.5866 19.9697C16.635 19.9496 16.679 19.9202 16.7161 19.8832C16.7531 19.8461 16.7825 19.8021 16.8026 19.7537C16.8226 19.7053 16.8329 19.6534 16.8329 19.601V5.32017C16.833 5.26776 16.8227 5.21586 16.8026 5.16743C16.7826 5.119 16.7532 5.075 16.7161 5.03794C16.6791 5.00088 16.6351 4.9715 16.5866 4.95147C16.5382 4.93144 16.4863 4.92115 16.4339 4.9212Z" fill="currentColor"/>
  <path d="M12.2876 6.61652C12.34 6.61654 12.3919 6.60623 12.4403 6.58618C12.4887 6.56614 12.5327 6.53675 12.5697 6.49969C12.6068 6.46264 12.6362 6.41864 12.6562 6.37022C12.6763 6.3218 12.6866 6.26991 12.6866 6.2175V3.30806C12.6865 1.48424 10.7175 0 8.28763 0C5.86733 0 3.89871 1.48424 3.89871 3.30806V6.21755C3.89871 6.43819 4.07748 6.61657 4.29772 6.61657C4.51797 6.61657 4.69674 6.43824 4.69674 6.21755V3.30806C4.69674 1.92395 6.30787 0.797982 8.29764 0.797982C10.2775 0.797982 11.8886 1.92395 11.8886 3.30806V6.21755C11.8885 6.26996 11.8988 6.32186 11.9188 6.37029C11.9389 6.41872 11.9683 6.46272 12.0053 6.49978C12.0424 6.53684 12.0864 6.56622 12.1348 6.58625C12.1832 6.60629 12.2351 6.61657 12.2876 6.61652ZM3.27066 7.24334C3.27066 7.8091 3.73152 8.26957 4.29767 8.26957C4.86382 8.26957 5.32469 7.80915 5.32469 7.24334C5.32469 7.0227 5.14592 6.84432 4.92567 6.84432C4.70542 6.84432 4.52666 7.02265 4.52666 7.24334C4.52666 7.36905 4.42412 7.47159 4.29762 7.47159C4.17152 7.47159 4.06859 7.36905 4.06859 7.24334C4.06859 7.0227 3.88982 6.84432 3.66958 6.84432C3.44933 6.84432 3.27066 7.0227 3.27066 7.24334ZM12.2876 8.26957C12.8537 8.26957 13.3146 7.80915 13.3146 7.24334C13.3146 7.19094 13.3043 7.13904 13.2842 7.09063C13.2642 7.04221 13.2348 6.99822 13.1977 6.96116C13.1607 6.92411 13.1167 6.89472 13.0683 6.87467C13.0198 6.85462 12.968 6.84431 12.9156 6.84432C12.8631 6.8443 12.8113 6.85461 12.7628 6.87466C12.7144 6.8947 12.6704 6.92409 12.6334 6.96115C12.5963 6.9982 12.5669 7.0422 12.5469 7.09062C12.5268 7.13904 12.5165 7.19093 12.5165 7.24334C12.5165 7.36905 12.414 7.47159 12.2875 7.47159C12.161 7.47159 12.0585 7.36905 12.0585 7.24334C12.0585 7.19094 12.0482 7.13904 12.0281 7.09063C12.0081 7.04221 11.9787 6.99822 11.9416 6.96116C11.9046 6.92411 11.8606 6.89472 11.8122 6.87467C11.7637 6.85462 11.7119 6.84431 11.6595 6.84432C11.607 6.8443 11.5552 6.85461 11.5067 6.87466C11.4583 6.8947 11.4143 6.92409 11.3773 6.96115C11.3402 6.9982 11.3108 7.0422 11.2908 7.09062C11.2707 7.13904 11.2604 7.19093 11.2604 7.24334C11.2605 7.8091 11.7214 8.26957 12.2876 8.26957Z" fill="currentColor"/>
</svg>
