<svg width="36" height="36" viewBox="0 0 36 36" fill="none" xmlns="http://www.w3.org/2000/svg">
<g clip-path="url(#clip0_131_1066)">
<path d="M18 0C8.05889 0 0 8.05889 0 18C0 27.9411 8.05889 36 18 36C27.9411 36 36 27.9411 36 18C36 8.05889 27.9411 0 18 0ZM16.6154 8.30768C16.6154 7.54295 17.2354 6.92307 18 6.92307C18.7646 6.92307 19.3846 7.54295 19.3846 8.30768V22.1538C19.3846 22.9185 18.7647 23.5385 18 23.5385C17.2354 23.5385 16.6154 22.9185 16.6154 22.1538V8.30768ZM18 29.1876C17.1742 29.1876 16.5045 28.5181 16.5045 27.6923C16.5045 26.8664 17.1742 26.1969 18 26.1969C18.8258 26.1969 19.4955 26.8664 19.4955 27.6923C19.4955 28.5181 18.8258 29.1876 18 29.1876Z" fill="url(#paint0_linear_131_1066)"/>
</g>
<defs>
<linearGradient id="paint0_linear_131_1066" x1="16.5067" y1="5.75943" x2="38.1233" y2="35.8766" gradientUnits="userSpaceOnUse">
<stop stop-color="#283430"/>
<stop offset="1" stop-color="#103A2C"/>
</linearGradient>
<clipPath id="clip0_131_1066">
<rect width="36" height="36" fill="white"/>
</clipPath>
</defs>
</svg>
