<svg xmlns="http://www.w3.org/2000/svg" fill="none">
  <symbol id="icon-line" viewBox="0 0 24 20">
    <defs>
      <clipPath id="clip-icon-line">
        <rect width="24" height="20" fill="white" />
      </clipPath>
    </defs>
    <g clip-path="url(#clip-icon-line)">
      <path
        d="M3.99992 2.00006C3.99992 3.10452 3.10452 3.99993 2.00006 3.99993C0.895403 3.99993 0 3.10452 0 2.00006C0 0.895403 0.895403 0 2.00006 0C3.10452 0 3.99992 0.895403 3.99992 2.00006ZM3.99992 9.99991C3.99992 11.1046 3.10452 12 2.00006 12C0.895403 12 0 11.1046 0 9.99991C0 8.89544 0.895403 8.00004 2.00006 8.00004C3.10452 8.00004 3.99992 8.89544 3.99992 9.99991ZM3.99992 17.9999C3.99992 19.1045 3.10452 20 2.00006 20C0.895403 20 0 19.1044 0 17.9999C0 16.8955 0.895403 15.9999 2.00006 15.9999C3.10452 15.9999 3.99992 16.8955 3.99992 17.9999ZM8.00004 2.99999H23C23.553 2.99999 23.9999 2.55304 23.9999 2.00006C23.9999 1.44707 23.553 0.999934 23 0.999934H8.00004C7.44705 0.999934 6.99992 1.44712 6.99992 2.00006C6.99992 2.55299 7.4471 2.99999 8.00004 2.99999ZM23 8.99997H8.00004C7.44705 8.99997 6.99992 9.44692 6.99992 9.99991C6.99992 10.5529 7.4471 11 8.00004 11H23C23.553 11 23.9999 10.5528 23.9999 9.99991C23.9999 9.44697 23.553 8.99997 23 8.99997ZM23 17H8.00004C7.44705 17 6.99992 17.447 6.99992 17.9999C6.99992 18.5529 7.4471 18.9999 8.00004 18.9999H23C23.553 18.9999 23.9999 18.5529 23.9999 17.9999C23.9999 17.447 23.553 17 23 17Z"
        fill="currentColor"
      />
    </g>
  </symbol>
</svg>
