<svg xmlns="http://www.w3.org/2000/svg" fill="none">
  <symbol id="icon-grid" viewBox="0 0 20 20">
    <defs>
      <clipPath id="clip-icon-grid">
        <rect width="20" height="20" fill="white" />
      </clipPath>
    </defs>
    <g clip-path="url(#clip-icon-grid)">
      <path
        d="M1.07129 12.0957H7.5C7.72351 12.0957 7.9043 12.2765 7.9043 12.5V18.9287C7.90422 19.1522 7.72346 19.333 7.5 19.333H1.07129C0.847893 19.3329 0.667067 19.1521 0.666992 18.9287V12.5C0.666992 12.2765 0.847847 12.0958 1.07129 12.0957ZM12.5 12.0957H18.9287C19.1522 12.0958 19.333 12.2765 19.333 12.5V18.9287C19.3329 19.1521 19.1521 19.3329 18.9287 19.333H12.5C12.2765 19.333 12.0958 19.1522 12.0957 18.9287V12.5C12.0957 12.2765 12.2765 12.0957 12.5 12.0957ZM1.07129 0.666992H7.5C7.72346 0.666992 7.90422 0.847846 7.9043 1.07129V7.5C7.9043 7.72351 7.72351 7.9043 7.5 7.9043H1.07129C0.847846 7.90422 0.666992 7.72346 0.666992 7.5V1.07129C0.667068 0.847893 0.847893 0.667068 1.07129 0.666992ZM12.5 0.666992H18.9287C19.1521 0.667067 19.3329 0.847893 19.333 1.07129V7.5C19.333 7.72346 19.1522 7.90422 18.9287 7.9043H12.5C12.2765 7.9043 12.0957 7.72351 12.0957 7.5V1.07129C12.0958 0.847847 12.2765 0.666992 12.5 0.666992Z"
        stroke="currentColor"
        stroke-width="1.33333"
      />
    </g>
  </symbol>
</svg>
