<svg width="30" height="30" viewBox="0 0 30 30" fill="none" xmlns="http://www.w3.org/2000/svg">
<g clip-path="url(#clip0_155_965)">
<path fill-rule="evenodd" clip-rule="evenodd" d="M24.0254 7.53485C24.8438 7.1622 25.6357 7.73237 25.3223 8.987L22.2656 23.3962C22.0513 24.4197 21.4335 24.6632 20.5762 24.1911L15.918 20.7516L13.6797 22.9274L13.6582 22.947C13.4097 23.1908 13.2015 23.3932 12.748 23.3932L13.0645 18.6423L21.708 10.8415C22.0867 10.5061 21.6243 10.3422 21.1211 10.6481L10.4551 17.3766L5.84668 15.9382C4.85313 15.6337 4.84553 14.9504 6.07031 14.4597L24.0254 7.53485ZM-2.4668 14.3698C-2.47084 14.5295 -2.47363 14.6896 -2.47363 14.8503C-2.47363 14.7001 -2.47155 14.5503 -2.46777 14.4011L-2.4668 14.3698Z" fill="#ED7407"/>
</g>
<defs>
<clipPath id="clip0_155_965">
<rect width="30" height="30" rx="7.5" fill="white"/>
</clipPath>
</defs>
</svg>
