<svg width="24" height="24" viewBox="0 0 24 24" fill="none" xmlns="http://www.w3.org/2000/svg">
<g clip-path="url(#clip0_155_411)">
<path fill-rule="evenodd" clip-rule="evenodd" d="M12.1512 18.96C10.7713 18.96 10.13 18.7586 9.0154 17.9528C8.31034 18.8593 6.07768 19.5677 5.9803 18.3557C5.9803 17.4459 5.77886 16.677 5.55055 15.8377C5.27861 14.8036 4.96973 13.652 4.96973 11.9834C4.96973 7.99815 8.23984 5 12.1143 5C15.9921 5 19.0305 8.14588 19.0305 12.0203C19.0435 15.8348 15.9657 18.9397 12.1512 18.96ZM12.2083 8.44468C10.3214 8.34733 8.85087 9.65335 8.52521 11.7014C8.25662 13.3969 8.73337 15.4616 9.13961 15.5691C9.33434 15.6161 9.82453 15.2199 10.13 14.9144C10.6352 15.2634 11.2235 15.473 11.8356 15.5221C13.7907 15.6161 15.4613 14.1277 15.5925 12.1748C15.6689 10.2177 14.1636 8.56005 12.2083 8.44805V8.44468Z" fill="white"/>
</g>
<defs>
<clipPath id="clip0_155_411">
<rect width="24" height="24" fill="white"/>
</clipPath>
</defs>
</svg>
