<svg width="21" height="17" viewBox="0 0 21 17" fill="none" xmlns="http://www.w3.org/2000/svg">
<path d="M20.0193 3.42789L11.2444 9.01724C10.9466 9.19019 10.6084 9.28129 10.264 9.28129C9.91968 9.28129 9.58145 9.19019 9.28368 9.01724L0.5 3.42789" fill="#ED7407"/>
<path d="M18.0674 0.5H2.45193C1.37391 0.5 0.5 1.37391 0.5 2.45193V14.1635C0.5 15.2415 1.37391 16.1154 2.45193 16.1154H18.0674C19.1454 16.1154 20.0193 15.2415 20.0193 14.1635V2.45193C20.0193 1.37391 19.1454 0.5 18.0674 0.5Z" fill="#ED7407"/>
<path d="M20.0193 3.42789L11.2444 9.01724C10.9466 9.19019 10.6084 9.28129 10.264 9.28129C9.91968 9.28129 9.58145 9.19019 9.28368 9.01724L0.5 3.42789M2.45193 0.5H18.0674C19.1454 0.5 20.0193 1.37391 20.0193 2.45193V14.1635C20.0193 15.2415 19.1454 16.1154 18.0674 16.1154H2.45193C1.37391 16.1154 0.5 15.2415 0.5 14.1635V2.45193C0.5 1.37391 1.37391 0.5 2.45193 0.5Z" stroke="white" stroke-linecap="round" stroke-linejoin="round"/>
</svg>
