<svg width="12" height="12" viewBox="0 0 10.0997 12" fill="none" xmlns="http://www.w3.org/2000/svg">
  <path d="M6.56405 3.43152C6.59549 3.43153 6.62663 3.42534 6.65568 3.41332C6.68474 3.40129 6.71113 3.38365 6.73337 3.36142C6.7556 3.33919 6.77323 3.31279 6.78526 3.28374C6.79729 3.25469 6.80347 3.22355 6.80346 3.19211C6.80347 3.16067 6.79728 3.12953 6.78525 3.10048C6.77322 3.07143 6.75559 3.04503 6.73336 3.0228C6.71112 3.00057 6.68473 2.98293 6.65568 2.97091C6.62663 2.95888 6.59549 2.95269 6.56405 2.9527H3.27691C3.24547 2.95269 3.21433 2.95887 3.18528 2.9709C3.15623 2.98293 3.12983 3.00056 3.1076 3.02279C3.08536 3.04503 3.06773 3.07142 3.0557 3.10048C3.04367 3.12953 3.03749 3.16066 3.0375 3.19211C3.03749 3.22355 3.04368 3.25468 3.05571 3.28373C3.06774 3.31278 3.08537 3.33918 3.1076 3.36141C3.12984 3.38364 3.15623 3.40128 3.18528 3.41331C3.21433 3.42534 3.24547 3.43152 3.27691 3.43152H6.56405Z" fill="currentColor"/>
  <path d="M9.86028 2.95273H8.2295C8.19806 2.95272 8.16692 2.9589 8.13787 2.97093C8.10882 2.98295 8.08242 3.00059 8.06019 3.02282C8.03796 3.04506 8.02032 3.07145 8.00829 3.1005C7.99627 3.12956 7.99008 3.16069 7.99009 3.19214C7.99009 3.22358 7.99627 3.25471 8.0083 3.28376C8.02033 3.31281 8.03797 3.33921 8.0602 3.36144C8.08243 3.38367 8.10883 3.40131 8.13788 3.41334C8.16693 3.42537 8.19806 3.43155 8.2295 3.43155H9.62087V11.5212H0.478789V3.43152H1.79043C1.82187 3.43153 1.85301 3.42534 1.88206 3.41332C1.91111 3.40129 1.93751 3.38365 1.95974 3.36142C1.98198 3.33919 1.99961 3.31279 2.01164 3.28374C2.02367 3.25469 2.02985 3.22355 2.02984 3.19211C2.02985 3.16067 2.02366 3.12953 2.01163 3.10048C1.9996 3.07143 1.98197 3.04503 1.95973 3.0228C1.9375 3.00057 1.91111 2.98293 1.88206 2.97091C1.85301 2.95888 1.82187 2.95269 1.79043 2.9527H0.239409C0.207966 2.95269 0.176829 2.95887 0.147778 2.9709C0.118726 2.98293 0.0923289 3.00056 0.0700954 3.02279C0.0478619 3.04503 0.0302277 3.07142 0.0182003 3.10048C0.006173 3.12953 -1.15941e-05 3.16066 1.63169e-08 3.19211V11.7606C-7.72226e-06 11.792 0.00617949 11.8232 0.0182082 11.8522C0.0302369 11.8813 0.0478713 11.9077 0.070104 11.9299C0.0923368 11.9521 0.118732 11.9698 0.147782 11.9818C0.176832 11.9938 0.207967 12 0.239409 12H9.86028C9.89172 12 9.92286 11.9938 9.95191 11.9818C9.98096 11.9698 10.0074 11.9521 10.0296 11.9299C10.0518 11.9077 10.0695 11.8813 10.0815 11.8522C10.0935 11.8232 10.0997 11.792 10.0997 11.7606V3.19211C10.0997 3.16066 10.0935 3.12952 10.0815 3.10046C10.0695 3.0714 10.0519 3.045 10.0296 3.02277C10.0074 3.00053 9.98098 2.9829 9.95193 2.97089C9.92287 2.95887 9.89172 2.9527 9.86028 2.95273Z" fill="currentColor"/>
  <path d="M7.37264 3.96991C7.40408 3.96992 7.43522 3.96374 7.46427 3.95171C7.49332 3.93968 7.51972 3.92205 7.54195 3.89982C7.56418 3.87758 7.58182 3.85118 7.59384 3.82213C7.60587 3.79308 7.61206 3.76194 7.61204 3.7305V1.98484C7.61202 0.890547 6.43061 0 4.97268 0C3.5205 0 2.33933 0.890547 2.33933 1.98484V3.73053C2.33933 3.86291 2.44659 3.96994 2.57874 3.96994C2.71089 3.96994 2.81815 3.86294 2.81815 3.73053V1.98484C2.81815 1.15437 3.78483 0.478789 4.97869 0.478789C6.16658 0.478789 7.13326 1.15437 7.13326 1.98484V3.73053C7.13323 3.76198 7.1394 3.79312 7.15141 3.82217C7.16343 3.85123 7.18107 3.87763 7.2033 3.89987C7.22553 3.9221 7.25194 3.93973 7.28099 3.95175C7.31005 3.96377 7.34119 3.96994 7.37264 3.96991ZM1.9625 4.346C1.9625 4.68546 2.23902 4.96174 2.57871 4.96174C2.9184 4.96174 3.19492 4.68549 3.19492 4.346C3.19492 4.21362 3.08766 4.10659 2.95551 4.10659C2.82336 4.10659 2.7161 4.21359 2.7161 4.346C2.7161 4.42143 2.65458 4.48295 2.57868 4.48295C2.50302 4.48295 2.44126 4.42143 2.44126 4.346C2.44126 4.21362 2.334 4.10659 2.20185 4.10659C2.0697 4.10659 1.9625 4.21362 1.9625 4.346ZM7.37264 4.96174C7.71233 4.96174 7.98884 4.68549 7.98884 4.346C7.98885 4.31456 7.98266 4.28343 7.97064 4.25438C7.95861 4.22533 7.94097 4.19893 7.91874 4.1767C7.89651 4.15446 7.87011 4.13683 7.84106 4.1248C7.81201 4.11277 7.78088 4.10659 7.74944 4.10659C7.71799 4.10658 7.68686 4.11277 7.6578 4.12479C7.62875 4.13682 7.60235 4.15446 7.58012 4.17669C7.55789 4.19892 7.54025 4.22532 7.52823 4.25437C7.5162 4.28342 7.51001 4.31456 7.51003 4.346C7.51003 4.42143 7.4485 4.48295 7.37261 4.48295C7.29671 4.48295 7.23519 4.42143 7.23519 4.346C7.23519 4.31456 7.22901 4.28343 7.21698 4.25438C7.20495 4.22533 7.18732 4.19893 7.16508 4.1767C7.14285 4.15446 7.11645 4.13683 7.0874 4.1248C7.05835 4.11277 7.02722 4.10659 6.99578 4.10659C6.96433 4.10658 6.9332 4.11277 6.90415 4.12479C6.87509 4.13682 6.8487 4.15446 6.82646 4.17669C6.80423 4.19892 6.7866 4.22532 6.77457 4.25437C6.76254 4.28342 6.75636 4.31456 6.75637 4.346C6.75643 4.68546 7.03292 4.96174 7.37264 4.96174Z" fill="currentColor"/>
</svg>
