<svg width="60" height="60" viewBox="0 0 60 60" fill="none" xmlns="http://www.w3.org/2000/svg">
<g clip-path="url(#clip0_407_19270)">
<path d="M23.375 36.6125C22.8125 37.1375 22.025 37.4 21.0125 37.4C20.5375 37.4 20.1 37.3376 19.7 37.1876C19.3125 37.0501 18.975 36.8501 18.7 36.6001C18.425 36.3502 18.2125 36.0376 18.0625 35.6876C17.9125 35.3251 17.8375 34.9376 17.8375 34.5125H14.5875C14.5875 35.4125 14.7624 36.2 15.1125 36.8876C15.4625 37.5751 15.9249 38.15 16.5125 38.6C17.1 39.0626 17.775 39.4001 18.55 39.6375C19.325 39.8875 20.125 40 20.975 40C21.9 40 22.7625 39.8749 23.5625 39.625C24.3625 39.375 25.05 39 25.6375 38.5125C26.225 38.025 26.675 37.425 27.0125 36.7125C27.3375 36 27.5125 35.1875 27.5125 34.275C27.5125 33.7875 27.4501 33.325 27.3376 32.875C27.2126 32.425 27.0231 31.9956 26.7751 31.6C26.5126 31.2 26.1751 30.85 25.7626 30.525C25.3501 30.2125 24.8376 29.95 24.25 29.7375C24.7501 29.5125 25.1875 29.2375 25.5625 28.9125C25.9375 28.5875 26.2501 28.2375 26.5 27.875C26.75 27.5 26.9375 27.125 27.0625 26.7251C27.1876 26.3251 27.25 25.925 27.25 25.5376C27.25 24.6251 27.1 23.8252 26.8 23.1376C26.5 22.4501 26.075 21.8752 25.525 21.4126C24.9751 20.9501 24.325 20.6002 23.5501 20.3626C22.75 20.1127 21.9001 20.0002 20.9751 20.0002C20.0751 20.0002 19.2376 20.1376 18.4752 20.4001C17.7127 20.6626 17.0627 21.0376 16.5126 21.5126C15.9627 21.9875 15.5376 22.55 15.2251 23.2001C14.9125 23.8501 14.7625 24.5626 14.7625 25.325H18.0125C18.0125 24.9 18.0875 24.525 18.2375 24.2C18.3875 23.8625 18.6 23.5751 18.8625 23.3501C19.125 23.1125 19.4499 22.925 19.8125 22.8001C20.1945 22.6679 20.5958 22.6003 21 22.6001C21.9999 22.6001 22.7375 22.8626 23.225 23.375C23.7125 23.8875 23.95 24.6125 23.95 25.5375C23.95 25.9875 23.8876 26.3875 23.75 26.75C23.6125 27.1125 23.4125 27.425 23.1375 27.6875C22.8624 27.95 22.5125 28.1501 22.1124 28.3001C21.6999 28.4501 21.2124 28.5251 20.6625 28.5251H18.7374V31.0876H20.6625C21.2124 31.0876 21.7125 31.1501 22.1499 31.2751C22.5874 31.4002 22.9624 31.5877 23.2749 31.8626C23.5875 32.1251 23.8249 32.4626 24 32.8625C24.1625 33.2625 24.2499 33.7376 24.2499 34.2875C24.2499 35.3 23.9625 36.075 23.375 36.6125ZM18.7875 53.7125C10.625 49.8375 4.76246 41.9 3.875 32.5H0.125C1.4 47.9 14.2749 60 30 60C30.5625 60 31.1 59.95 31.65 59.9125L22.125 50.3749L18.7875 53.7125ZM30 0C29.4375 0 28.8999 0.0500391 28.35 0.0875391L37.875 9.62508L41.1999 6.30012C49.3749 10.1626 55.2375 18.1001 56.1249 27.5002H59.8749C58.5999 12.1 45.725 0 30 0ZM42.4125 22.5875C41.625 21.7625 40.6749 21.125 39.575 20.675C38.4625 20.225 37.25 20 35.9125 20H30V40.0001H35.7375C37.125 40.0001 38.375 39.7751 39.5124 39.3251C40.65 38.8751 41.6124 38.2376 42.4125 37.4126C43.2125 36.5876 43.8375 35.5876 44.2625 34.4251C44.7 33.2626 44.9125 31.9501 44.9125 30.5002V29.5126C44.9125 28.0627 44.6875 26.7626 44.2501 25.5877C43.8125 24.4125 43.2 23.4125 42.4125 22.5875ZM41.4375 30.5125H41.4249C41.4249 31.5499 41.3124 32.5 41.0625 33.325C40.8249 34.1625 40.475 34.8625 39.9999 35.4375C39.5248 36.0125 38.9374 36.45 38.2249 36.7625C37.5124 37.0625 36.6874 37.2251 35.7373 37.2251H33.4748V22.8H35.9123C37.7123 22.8 39.0748 23.375 40.0248 24.5125C40.9623 25.6624 41.4372 27.3124 41.4372 29.4874V30.5125H41.4375Z" fill="white" fill-opacity="0.6"/>
</g>
<defs>
<clipPath id="clip0_407_19270">
<rect width="60" height="60" fill="white"/>
</clipPath>
</defs>
</svg>
