<svg width="34" height="34" viewBox="0 0 34 34" fill="none" xmlns="http://www.w3.org/2000/svg">
<rect x="0.5" y="0.5" width="33" height="33" rx="16.5" stroke="#ED7407"/>
<path d="M15.7 20.6V20C15.7 19.6533 15.7333 19.34 15.8 19.06C15.88 18.78 16.0333 18.4867 16.26 18.18C16.4867 17.8733 16.8267 17.5267 17.28 17.14C17.84 16.66 18.2667 16.2267 18.56 15.84C18.8533 15.4533 19 15.04 19 14.6C19 13.96 18.7867 13.4333 18.36 13.02C17.9333 12.6067 17.3467 12.4 16.6 12.4C15.8533 12.4 15.2667 12.6067 14.84 13.02C14.4133 13.4333 14.2 13.96 14.2 14.6H12.4C12.4 13.88 12.5667 13.2333 12.9 12.66C13.2467 12.0867 13.7333 11.6333 14.36 11.3C15 10.9667 15.7467 10.8 16.6 10.8C17.4667 10.8 18.2133 10.9667 18.84 11.3C19.4667 11.6333 19.9467 12.0867 20.28 12.66C20.6267 13.2333 20.8 13.88 20.8 14.6C20.8 15.0933 20.6933 15.5533 20.48 15.98C20.28 16.4067 20.0133 16.8067 19.68 17.18C19.3467 17.5533 18.9867 17.9067 18.6 18.24C18.2933 18.48 18.0533 18.7067 17.88 18.92C17.72 19.1333 17.6067 19.3467 17.54 19.56C17.4867 19.76 17.46 19.9733 17.46 20.2V20.6H15.7ZM16.6 25.2C16.3467 25.2 16.1133 25.1333 15.9 25C15.6867 24.88 15.5133 24.7133 15.38 24.5C15.26 24.2867 15.2 24.0533 15.2 23.8C15.2 23.4 15.3333 23.0667 15.6 22.8C15.88 22.5333 16.2133 22.4 16.6 22.4C16.9867 22.4 17.3133 22.5333 17.58 22.8C17.86 23.0667 18 23.4 18 23.8C18 24.0533 17.9333 24.2867 17.8 24.5C17.68 24.7133 17.5133 24.88 17.3 25C17.1 25.1333 16.8667 25.2 16.6 25.2Z" fill="#ED7407"/>
</svg>
