<svg width="20" height="20" viewBox="0 0 20 20" fill="none" xmlns="http://www.w3.org/2000/svg">
<g clip-path="url(#clip0_155_420)">
<path d="M12.4829 9.84857C14.1219 8.96192 15.2381 7.22763 15.2381 5.23808C15.2381 2.35049 12.8876 0 10 0C7.11237 0 4.76192 2.35049 4.76192 5.23808C4.76192 7.22759 5.87813 8.96187 7.51714 9.84857C3.20192 10.9571 0 14.8676 0 19.5238C0 19.7867 0.213348 20 0.476205 20C0.739062 20 0.952411 19.7867 0.952411 19.5238C0.952411 14.5352 5.01147 10.4762 10 10.4762C14.9886 10.4762 19.0477 14.5352 19.0477 19.5238C19.0477 19.7867 19.261 20 19.5239 20C19.7867 20 20 19.7867 20 19.5238C20 14.8676 16.7981 10.9571 12.4829 9.84857ZM5.71429 5.23808C5.71429 2.87522 7.63714 0.952366 10 0.952366C12.3629 0.952366 14.2857 2.87522 14.2857 5.23808C14.2857 7.60094 12.3629 9.52379 10 9.52379C7.63714 9.52379 5.71429 7.60094 5.71429 5.23808Z" fill="#ED7407"/>
</g>
<defs>
<clipPath id="clip0_155_420">
<rect width="20" height="20" fill="white"/>
</clipPath>
</defs>
</svg>
